<?xml version="1.0" encoding="UTF-8" standalone="no"?>
<!DOCTYPE svg PUBLIC "-//W3C//DTD SVG 1.1//EN" "http://www.w3.org/Graphics/SVG/1.1/DTD/svg11.dtd">
<svg width="100%" height="100%" viewBox="0 0 581 521" version="1.1" xmlns="http://www.w3.org/2000/svg" xmlns:xlink="http://www.w3.org/1999/xlink" xml:space="preserve" xmlns:serif="http://www.serif.com/" style="fill-rule:evenodd;clip-rule:evenodd;stroke-linecap:round;stroke-linejoin:round;stroke-miterlimit:1.5;">
    <g transform="matrix(1,0,0,1,-34.5054,-35.4253)">
        <g transform="matrix(1,0,0,1,2.66441,-7.9936)">
            <rect x="32.883" y="44.461" width="578.512" height="518.282" style="fill:none;stroke:rgb(45,167,231);stroke-width:2.08px;"/>
        </g>
        <g transform="matrix(1,0,0,1,2.66441,-7.9936)">
            <path d="M32.883,339.021L32.883,44.461L611.395,44.461L611.395,339.021C553.892,238.836 445.841,171.295 322.139,171.295C198.437,171.295 90.386,238.836 32.883,339.021ZM94.501,562.743C85.685,537.727 80.889,510.822 80.889,482.806C80.889,349.941 188.758,242.072 321.623,242.072C454.487,242.072 562.357,349.941 562.357,482.806C562.357,510.822 557.56,537.727 548.745,562.743L94.501,562.743Z" style="fill:url(#_Radial1);"/>
        </g>
    </g>
    <defs>
        <radialGradient id="_Radial1" cx="0" cy="0" r="1" gradientUnits="userSpaceOnUse" gradientTransform="matrix(359.578,-1.50014,1.50014,359.578,322.139,303.602)"><stop offset="0" style="stop-color:rgb(0,52,160);stop-opacity:1"/><stop offset="0.42" style="stop-color:rgb(14,88,182);stop-opacity:1"/><stop offset="1" style="stop-color:rgb(45,167,231);stop-opacity:1"/></radialGradient>
    </defs>
</svg>
